<svg width="55" height="48" viewBox="0 0 55 48" fill="none" xmlns="http://www.w3.org/2000/svg">
<path d="M55 0V9.30909C52.7807 9.50303 50.7544 10.3758 48.9211 11.9273C47.1842 13.4788 45.7851 15.4667 44.7237 17.8909C43.7588 20.2182 43.2763 22.7879 43.2763 25.6H54.5658V48H31.5526V28.0727C31.5526 21.9636 32.614 16.9212 34.7368 12.9455C36.9561 8.96969 39.8509 5.91515 43.4211 3.78182C46.9912 1.64849 50.8509 0.38788 55 0ZM23.5921 0V9.30909C21.3728 9.50303 19.3465 10.3758 17.5132 11.9273C15.7763 13.4788 14.3772 15.4667 13.3158 17.8909C12.3509 20.2182 11.8684 22.7879 11.8684 25.6H23.0132V48H0V28.0727C0 21.9636 1.10965 16.9212 3.32895 12.9455C5.54825 8.96969 8.44298 5.91515 12.0132 3.78182C15.5833 1.64849 19.443 0.38788 23.5921 0Z" fill="#1476DA"/>
</svg>
