<svg width="379" height="356" viewBox="0 0 379 356" fill="none" xmlns="http://www.w3.org/2000/svg">
<path fill-rule="evenodd" clip-rule="evenodd" d="M285.05 230.006H294.627V281.404C300.049 276.201 303.947 271.801 306.957 267.847V230.006H316.534V219.658H285.05V230.006Z" fill="white"/>
<path d="M222.888 273.821V255.436C222.888 250.152 224.393 246.079 227.402 243.217C230.411 240.281 234.814 238.813 240.612 238.813C246.41 238.813 250.446 240.721 252.722 244.538C255.29 240.795 259.18 238.923 264.391 238.923C267.033 238.923 269.124 239.217 270.666 239.804V230.006H214.632V219.658H292.573V230.006H282.995V292.646H270.666V251.143C269.491 250.482 267.73 250.152 265.381 250.152C261.198 250.152 259.107 252.024 259.107 255.767V269.527H246.777V255.767C246.777 253.932 246.373 252.537 245.566 251.583C244.759 250.629 243.217 250.152 240.942 250.152C238.667 250.152 237.126 250.629 236.319 251.583C235.585 252.537 235.218 253.969 235.218 255.877V273.38C235.218 275.949 235.842 277.931 237.089 279.325C238.337 280.72 240.282 281.417 242.924 281.417C245.639 281.417 248.245 281.27 250.74 280.976V292.205C248.391 292.499 246.043 292.646 243.694 292.646C236.502 292.646 231.218 291.104 227.842 288.022C224.539 284.866 222.888 280.132 222.888 273.821Z" fill="white"/>
<path d="M174.943 276.353V272.83C174.943 267.839 176.667 264.353 180.117 262.372C176.741 260.61 175.016 257.344 174.943 252.574V250.703C174.943 245.859 176.374 242.336 179.236 240.134C182.098 237.933 186.539 236.832 192.557 236.832H199.382V230.006H166.576V219.658H222.17V230.006H211.602V247.51H192.557C190.575 247.51 189.181 247.84 188.373 248.501C187.639 249.161 187.272 250.226 187.272 251.693V252.684C187.272 254.152 187.676 255.216 188.483 255.877C189.291 256.537 190.648 256.867 192.557 256.867H199.602C204.813 256.867 208.556 258.042 210.831 260.39C213.179 262.739 214.354 266.335 214.354 271.179V274.591H203.345V272.169C203.345 270.261 203.015 268.94 202.354 268.206C201.694 267.472 200.299 267.105 198.171 267.105H193.547C191.125 267.105 189.437 267.583 188.483 268.537C187.603 269.417 187.162 270.738 187.162 272.5V275.692C187.162 280.316 190.795 282.628 198.061 282.628C203.418 282.628 208.299 281.967 212.702 280.646V291.325C208.226 292.646 202.721 293.306 196.189 293.306C189.731 293.306 184.557 291.875 180.667 289.013C176.851 286.077 174.943 281.857 174.943 276.353Z" fill="white"/>
<path d="M152.508 219.658V216.906C152.508 209.126 154.894 203.402 159.664 199.732C164.434 196.063 171.407 194.228 180.58 194.228C189.828 194.228 199.846 196.063 210.634 199.732V210.741C198.451 207.292 188.91 205.567 182.012 205.567C175.113 205.567 170.489 206.448 168.141 208.209C165.866 209.97 164.728 212.943 164.728 217.126V219.658H174.085V230.006H164.508V292.645H152.178V230.006H142.601V219.658H152.508Z" fill="white"/>
<path d="M128.455 292.646V254.666H117.997V270.848C117.997 281.197 112.163 286.371 100.493 286.371C88.8243 286.371 82.9897 281.197 82.9897 270.848V259.51C82.9897 249.308 88.8243 244.207 100.493 244.207H106.218V230.006H76.1643V219.658H150.142V230.006H140.455V292.646H128.455ZM117.997 244.207H128.455V230.006H117.997V244.207ZM106.218 270.408V254.666H100.493C98.2183 254.666 96.6771 255.106 95.8698 255.987C95.1359 256.794 94.7689 258.115 94.7689 259.95V270.408C94.7689 272.243 95.1359 273.601 95.8698 274.481C96.6771 275.362 98.2183 275.802 100.493 275.802C102.769 275.802 104.273 275.362 105.007 274.481C105.814 273.601 106.218 272.243 106.218 270.408Z" fill="white"/>
<path d="M219.426 150.483C228.618 150.483 235.951 147.144 241.424 140.464C246.967 133.784 249.739 124.748 249.739 113.357C249.739 102.388 246.932 93.2825 241.319 86.0401C235.775 78.7274 228.478 75.071 219.426 75.071C210.023 75.071 202.41 78.4813 196.586 85.3018C190.832 92.052 187.955 101.123 187.955 112.514C187.955 123.412 190.797 132.483 196.48 139.725C202.234 146.897 209.883 150.483 219.426 150.483ZM173.43 112.725C173.43 100.49 177.921 89.9777 186.902 81.1884C195.884 72.3991 206.725 68.0044 219.426 68.0044C232.197 68.0044 243.003 72.3287 251.844 80.9774C260.685 89.6261 265.106 100.209 265.106 112.725C265.106 125.1 260.65 135.647 251.739 144.366C242.827 153.085 232.056 157.445 219.426 157.445C206.585 157.445 195.709 153.12 186.797 144.472C177.886 135.823 173.43 125.241 173.43 112.725Z" fill="white"/>
<path d="M149.809 190.047C144.265 197.683 136.264 201.501 125.807 201.501C115.491 201.501 107.946 198.779 103.174 193.334C98.4721 187.961 96.121 182.198 96.121 176.046C96.121 173.147 97.3141 170.991 99.7003 169.577C102.157 168.233 103.385 166.253 103.385 163.637C103.385 161.021 102.718 159.041 101.385 157.698C100.121 156.283 98.1212 155.576 95.3841 155.576C92.6471 155.576 90.4364 156.849 88.7521 159.395C87.0678 161.94 86.2256 165.581 86.2256 170.319C86.2256 182.976 90.0504 192.733 97.7001 199.592C105.35 206.451 115.351 209.88 127.702 209.88C132.468 209.88 136.943 209.329 141.127 208.226C141.129 205.577 142.079 202.039 144.923 197.386C149.989 189.095 160.023 184.109 170.521 183.199C173.205 177.175 174.548 170.442 174.548 163.001C174.548 150.132 170.021 139.808 160.968 132.03C151.985 124.182 141.387 120.257 129.176 120.257C119.842 120.257 111.455 122.273 104.016 126.303V96.0752H165.389V73.4839H161.284C160.301 78.5749 157.74 81.4032 153.599 81.9689H95.3841V138.924C97.9808 138.924 100.262 138.394 102.227 137.334C111.561 132.172 120.228 129.591 128.229 129.591C136.37 129.591 143.388 132.773 149.283 139.137C155.178 145.5 158.126 153.738 158.126 163.849C158.126 173.678 155.353 182.41 149.809 190.047Z" fill="white"/>
<path d="M241.039 140.144L241.037 140.147C235.666 146.702 228.479 149.983 219.426 149.983C210.029 149.983 202.527 146.462 196.872 139.414C191.271 132.276 188.455 123.321 188.455 112.514C188.455 101.207 191.309 92.2627 196.966 85.6262C202.69 78.9231 210.161 75.571 219.426 75.571C228.319 75.571 235.47 79.1521 240.92 86.3422L240.923 86.3464C246.456 93.4848 249.239 102.477 249.239 113.357C249.239 124.669 246.487 133.579 241.039 140.144ZM125.807 201.001C115.572 201.001 108.193 198.301 103.55 193.005C98.9144 187.707 96.621 182.058 96.621 176.046C96.621 173.317 97.7268 171.33 99.9481 170.011C101.233 169.307 102.222 168.422 102.889 167.348C103.558 166.269 103.885 165.026 103.885 163.637C103.885 160.946 103.2 158.822 101.749 157.355C100.354 155.801 98.1932 155.076 95.3841 155.076C92.4578 155.076 90.0995 156.452 88.3351 159.119C86.5744 161.78 85.7256 165.533 85.7256 170.319C85.7256 183.082 89.587 192.99 97.3663 199.964C105.126 206.921 115.254 210.38 127.702 210.38C132.507 210.38 137.025 209.824 141.255 208.709L141.627 208.611L141.627 208.226C141.629 205.697 142.537 202.249 145.35 197.646C150.311 189.528 160.176 184.598 170.564 183.698L170.858 183.672L170.978 183.403C173.694 177.307 175.048 170.503 175.048 163.001C175.048 150 170.468 139.533 161.295 131.653C152.219 123.723 141.505 119.757 129.176 119.757C120.074 119.757 111.851 121.659 104.516 125.472V96.5752H165.389H165.889V96.0752V73.4839V72.9839H165.389H161.284H160.871L160.793 73.3891C160.313 75.8759 159.456 77.7615 158.255 79.0877C157.068 80.3987 155.515 81.1959 153.565 81.4689H95.3841H94.8841V81.9689V138.924V139.424H95.3841C98.0502 139.424 100.415 138.879 102.464 137.774L102.469 137.771C111.752 132.637 120.336 130.091 128.229 130.091C136.22 130.091 143.109 133.207 148.916 139.476C154.712 145.733 157.626 153.842 157.626 163.849C157.626 173.577 154.884 182.205 149.405 189.753C143.966 197.244 136.124 201.001 125.807 201.001ZM186.553 80.831C177.478 89.7116 172.93 100.351 172.93 112.725C172.93 125.375 177.439 136.087 186.449 144.83C195.457 153.573 206.46 157.945 219.426 157.945C232.185 157.945 243.082 153.535 252.088 144.723C261.095 135.911 265.606 125.236 265.606 112.725C265.606 100.076 261.132 89.364 252.194 80.62C243.256 71.8767 232.323 67.5044 219.426 67.5044C206.596 67.5044 195.629 71.9492 186.553 80.831Z" stroke="white"/>
<path d="M370.68 174.825V170.363C370.68 169.465 370.463 168.799 370.029 168.365C369.627 167.931 368.898 167.714 367.845 167.714C366.822 167.714 366.094 167.946 365.66 168.411C365.227 168.845 365.01 169.496 365.01 170.363V171.99H361.012V170.317C361.012 166.134 363.29 164.042 367.845 164.042C372.431 164.042 374.724 166.134 374.724 170.317V174.825H379V178.265H374.724V205.315H370.68V178.265H366.404V174.825H370.68Z" fill="white"/>
<path d="M340.659 197.786V189.327C340.659 187.251 341.248 185.655 342.425 184.539C343.603 183.393 345.354 182.82 347.678 182.82C350.032 182.82 351.69 183.563 352.651 185.051C353.735 183.594 355.424 182.866 357.717 182.866C358.925 182.866 359.948 183.036 360.785 183.377V178.265H337.173V174.825H369.104V178.265H364.828V205.315H360.785V187.096C360.041 186.724 359.111 186.538 357.996 186.538C355.827 186.538 354.742 187.483 354.742 189.373V195.601H350.745V189.373C350.745 188.474 350.513 187.777 350.048 187.281C349.614 186.786 348.824 186.538 347.678 186.538C346.562 186.538 345.787 186.786 345.354 187.281C344.92 187.777 344.703 188.49 344.703 189.42V197.693C344.703 198.963 345.013 199.939 345.632 200.621C346.252 201.303 347.383 201.643 349.025 201.643C349.893 201.643 350.792 201.581 351.721 201.458V205.083C350.885 205.238 349.924 205.315 348.839 205.315C343.386 205.315 340.659 202.805 340.659 197.786Z" fill="white"/>
<path d="M331.554 178.265H327.278V174.825H339.873V178.265H335.597V205.315H331.554V178.265Z" fill="white"/>
<path d="M317.458 181.1V187.467C317.458 191.712 315.134 193.835 310.486 193.835C309.215 193.835 308.022 193.649 306.907 193.277V197.832C306.907 200.435 308.518 201.736 311.741 201.736C313.352 201.736 315.149 201.426 317.132 200.807V204.525C315.366 205.114 313.275 205.408 310.858 205.408C308.472 205.408 306.535 204.726 305.048 203.363C303.591 202 302.863 200.187 302.863 197.925V186.538H306.907V189.698C307.929 190.039 309.029 190.21 310.207 190.21C312.345 190.21 313.414 189.265 313.414 187.374V181.193C313.414 179.272 312.329 178.311 310.16 178.311C308.921 178.311 308.069 178.574 307.604 179.101C307.139 179.628 306.907 180.294 306.907 181.1C306.907 181.905 306.953 182.541 307.046 183.005H303.003C302.91 182.448 302.863 181.812 302.863 181.1C302.863 179.024 303.468 177.428 304.676 176.312C305.884 175.166 307.713 174.593 310.16 174.593C312.608 174.593 314.436 175.166 315.645 176.312C316.853 177.428 317.458 179.024 317.458 181.1ZM321.641 174.825H329.96V178.265H325.638V205.315H321.641V174.825Z" fill="white"/>
<path d="M289.819 185.329C287.341 185.329 286.101 186.336 286.101 188.351V195.741C286.101 197.786 287.356 198.808 289.866 198.808C291.384 198.808 292.562 198.638 293.398 198.297V185.794C292.469 185.484 291.276 185.329 289.819 185.329ZM293.259 178.265H278.804V174.825H301.579V178.265H297.302V205.315H293.259V201.829C291.895 202.17 290.579 202.341 289.308 202.341C284.536 202.341 282.15 200.172 282.15 195.834V188.304C282.15 186.259 282.739 184.679 283.917 183.563C285.125 182.417 286.922 181.843 289.308 181.843C290.703 181.843 292.019 181.998 293.259 182.308V178.265Z" fill="white"/>
<path d="M273.185 178.265H268.909V174.825H281.505V178.265H277.229V205.315H273.185V178.265Z" fill="white"/>
<path d="M253.921 186.398V181.1C253.921 180.139 253.736 179.442 253.364 179.008C252.992 178.543 252.248 178.311 251.133 178.311C250.048 178.311 249.305 178.543 248.902 179.008C248.53 179.473 248.344 180.17 248.344 181.1L248.53 183.191H244.486C244.362 182.355 244.3 181.611 244.3 180.96C244.3 176.715 246.578 174.593 251.133 174.593C255.688 174.593 257.965 176.715 257.965 180.96V186.398H263.264V174.825H271.583V178.265H267.307V205.315H263.264V189.838H257.826V196.531C257.826 200.559 255.548 202.573 250.993 202.573C246.438 202.573 244.161 200.559 244.161 196.531V192.348C244.161 188.381 246.438 186.398 250.993 186.398H253.921ZM253.921 196.438V189.838H250.993C249.816 189.838 249.026 190.055 248.623 190.488C248.251 190.891 248.065 191.558 248.065 192.487V196.438C248.065 197.336 248.251 198.003 248.623 198.436C249.026 198.839 249.816 199.041 250.993 199.041C252.171 199.041 252.945 198.839 253.317 198.436C253.72 198.003 253.921 197.336 253.921 196.438Z" fill="white"/>
<path d="M220.387 174.825H243.394V178.265H239.118V205.315H235.12V195.787L227.498 205.315H222.757L230.008 196.298C226.197 195.896 224.291 193.789 224.291 189.977V178.265H220.387V174.825ZM228.335 178.265V190.07C228.335 191.96 229.512 192.905 231.867 192.905C233.013 192.905 234.098 192.735 235.12 192.394V178.265H228.335Z" fill="white"/>
<mask id="path-16-outside-1_211_3399" maskUnits="userSpaceOnUse" x="0" y="0" width="355" height="356" fill="black">
<rect fill="white" width="355" height="356"/>
<path fill-rule="evenodd" clip-rule="evenodd" d="M2 177.939C2 80.7694 80.7694 2 177.939 2C266.761 2 340.209 67.8176 352.172 153.343H348.397C336.456 69.894 264.691 5.74965 177.939 5.74965C82.8317 5.74965 5.73626 82.8317 5.73626 177.939C5.73626 273.046 82.8317 350.142 177.939 350.142V350.155C255.391 350.155 320.897 299.026 342.549 228.679L346.517 228.46C324.807 301.006 257.548 353.878 177.939 353.878C80.7694 353.878 2 275.108 2 177.939Z"/>
</mask>
<path fill-rule="evenodd" clip-rule="evenodd" d="M2 177.939C2 80.7694 80.7694 2 177.939 2C266.761 2 340.209 67.8176 352.172 153.343H348.397C336.456 69.894 264.691 5.74965 177.939 5.74965C82.8317 5.74965 5.73626 82.8317 5.73626 177.939C5.73626 273.046 82.8317 350.142 177.939 350.142V350.155C255.391 350.155 320.897 299.026 342.549 228.679L346.517 228.46C324.807 301.006 257.548 353.878 177.939 353.878C80.7694 353.878 2 275.108 2 177.939Z" fill="white"/>
<path d="M352.172 153.343V155.343H354.472L354.153 153.066L352.172 153.343ZM348.397 153.343L346.417 153.626L346.662 155.343H348.397V153.343ZM177.939 350.142H179.939V348.142H177.939V350.142ZM177.939 350.155H175.939V352.155H177.939V350.155ZM342.549 228.679L342.439 226.682L341.048 226.759L340.638 228.091L342.549 228.679ZM346.517 228.46L348.433 229.034L349.249 226.307L346.407 226.464L346.517 228.46ZM177.939 0C79.6649 0 0 79.6649 0 177.939H4C4 81.874 81.874 4 177.939 4V0ZM354.153 153.066C342.053 66.5664 267.773 0 177.939 0V4C265.75 4 338.365 69.0688 350.192 153.62L354.153 153.066ZM348.397 155.343H352.172V151.343H348.397V155.343ZM177.939 7.74965C263.681 7.74965 334.615 71.1484 346.417 153.626L350.376 153.06C338.297 68.6397 265.7 3.74965 177.939 3.74965V7.74965ZM7.73626 177.939C7.73626 83.9365 83.9361 7.74965 177.939 7.74965V3.74965C81.7274 3.74965 3.73626 81.727 3.73626 177.939H7.73626ZM177.939 348.142C83.9363 348.142 7.73626 271.942 7.73626 177.939H3.73626C3.73626 274.151 81.7272 352.142 177.939 352.142V348.142ZM179.939 350.155V350.142H175.939V350.155H179.939ZM340.638 228.091C319.237 297.623 254.488 348.155 177.939 348.155V352.155C256.293 352.155 322.558 300.43 344.461 229.267L340.638 228.091ZM346.407 226.464L342.439 226.682L342.659 230.676L346.627 230.457L346.407 226.464ZM177.939 355.878C258.456 355.878 326.477 302.403 348.433 229.034L344.601 227.887C323.137 299.609 256.64 351.878 177.939 351.878V355.878ZM0 177.939C0 276.213 79.6649 355.878 177.939 355.878V351.878C81.874 351.878 4 274.004 4 177.939H0Z" fill="white" mask="url(#path-16-outside-1_211_3399)"/>
<path d="M126.733 59.6816V49.2548H129.899V50.3034C130.472 49.6307 131.442 49.0372 132.767 49.0372C134.904 49.0372 136.25 50.5211 136.25 52.7964V59.6816H133.084V53.7065C133.084 52.6579 132.649 51.8862 131.62 51.8862C130.749 51.8862 129.899 52.4996 129.899 53.7263V59.6816H126.733Z" fill="white"/>
<path d="M140.642 45.4758V59.6816H137.476V45.4758H140.642Z" fill="white"/>
<path d="M146.366 59.6816V49.2548H149.531V50.3034C150.105 49.6307 151.075 49.0372 152.4 49.0372C154.537 49.0372 155.883 50.5211 155.883 52.7964V59.6816H152.717V53.7065C152.717 52.6579 152.282 51.8862 151.253 51.8862C150.382 51.8862 149.531 52.4996 149.531 53.7263V59.6816H146.366Z" fill="white"/>
<path d="M161.818 59.8992C158.672 59.8992 156.536 57.7031 156.536 54.4583C156.536 51.3718 158.752 49.0372 161.759 49.0372C164.925 49.0372 166.646 51.3718 166.646 54.3198V55.1508H159.583C159.8 56.5753 160.651 57.3865 161.858 57.3865C162.847 57.3865 163.619 56.9117 163.915 56.0016L166.567 56.8523C165.795 58.8506 163.896 59.8992 161.818 59.8992ZM161.719 51.4905C160.75 51.4905 159.998 52.0643 159.681 53.2118H163.52C163.5 52.2819 162.887 51.4905 161.719 51.4905Z" fill="white"/>
<path fill-rule="evenodd" clip-rule="evenodd" d="M145.087 59.6816V49.2548H141.921V59.6816H145.087Z" fill="white"/>
<path d="M171.213 45.6672V53.1856L168.048 56.1336L171.022 53.3637L170.105 52.5723L171.213 53.1856V55.2631V56.8459V59.873H168.048V45.6672H171.213Z" fill="white"/>
<path d="M179.268 59.873V45.6672H182.434V50.4948C183.007 49.8221 183.977 49.2286 185.302 49.2286C187.439 49.2286 188.785 50.7125 188.785 52.9878V59.873H185.619V53.8979C185.619 52.8493 185.184 52.0776 184.155 52.0776C183.284 52.0776 182.434 52.691 182.434 53.9177V59.873H179.268Z" fill="white"/>
<path d="M192.959 60.0709C190.862 60.0709 189.359 58.8046 189.359 56.9646C189.359 54.808 191.179 53.9374 193.375 53.6209L195.71 53.2252V53.0471C195.71 52.2755 195.294 51.7809 194.265 51.7809C193.355 51.7809 192.88 52.1766 192.682 53.0273L189.655 52.5723C190.11 50.7322 191.753 49.2286 194.404 49.2286C197.134 49.2286 198.816 50.475 198.816 52.9086V56.925C198.816 57.4592 199.014 57.6175 199.627 57.5384V59.873C197.807 60.1698 196.58 59.8334 196.046 58.9431C195.353 59.6554 194.325 60.0709 192.959 60.0709ZM195.71 56.1336V55.2631L193.889 55.5994C193.058 55.7379 192.445 56.0149 192.445 56.7469C192.445 57.3999 192.94 57.756 193.692 57.756C194.74 57.756 195.71 57.202 195.71 56.1336Z" fill="white"/>
<path d="M206.228 60.0906C204.982 60.0906 203.992 59.5762 203.399 58.8442V59.873H200.233V45.6672H203.399V50.4948C203.992 49.743 204.982 49.2286 206.228 49.2286C209.097 49.2286 210.719 51.6819 210.719 54.6695C210.719 57.6373 209.097 60.0906 206.228 60.0906ZM203.379 54.3925V54.9465C203.379 56.5095 204.23 57.3999 205.417 57.3999C206.802 57.3999 207.534 56.2721 207.534 54.6695C207.534 53.0669 206.802 51.9391 205.417 51.9391C204.23 51.9391 203.379 52.8097 203.379 54.3925Z" fill="white"/>
<path d="M214.389 60.0709C212.291 60.0709 210.788 58.8046 210.788 56.9646C210.788 54.808 212.608 53.9374 214.804 53.6209L217.139 53.2252V53.0471C217.139 52.2755 216.723 51.7809 215.694 51.7809C214.784 51.7809 214.309 52.1766 214.112 53.0273L211.084 52.5723C211.539 50.7322 213.182 49.2286 215.833 49.2286C218.563 49.2286 220.245 50.475 220.245 52.9086V56.925C220.245 57.4592 220.443 57.6175 221.056 57.5384V59.873C219.236 60.1698 218.009 59.8334 217.475 58.9431C216.783 59.6554 215.754 60.0709 214.389 60.0709ZM217.139 56.1336V55.2631L215.318 55.5994C214.487 55.7379 213.874 56.0149 213.874 56.7469C213.874 57.3999 214.369 57.756 215.121 57.756C216.169 57.756 217.139 57.202 217.139 56.1336Z" fill="white"/>
<path d="M228.211 49.4264V52.4733C227.875 52.414 227.637 52.3942 227.281 52.3942C225.916 52.3942 224.828 53.245 224.828 54.7486V59.873H221.662V49.4462H224.828V50.8114C225.303 49.9804 226.312 49.3869 227.519 49.3869C227.816 49.3869 228.013 49.4066 228.211 49.4264Z" fill="white"/>
<circle cx="143.438" cy="46.7662" r="1.64877" fill="white"/>
<path fill-rule="evenodd" clip-rule="evenodd" d="M115.293 54.6018C115.293 51.6555 117.682 49.2671 120.628 49.2671C123.574 49.2671 125.963 51.6555 125.963 54.6018C125.963 57.5482 123.574 59.9366 120.628 59.9366C117.682 59.9366 115.293 57.5482 115.293 54.6018ZM120.628 56.9729C121.937 56.9729 122.999 55.9113 122.999 54.6019C122.999 53.2924 121.937 52.2309 120.628 52.2309C119.318 52.2309 118.257 53.2924 118.257 54.6019C118.257 55.9113 119.318 56.9729 120.628 56.9729Z" fill="white"/>
<path d="M177.6 49.2671H174.552C174.284 49.2671 174.035 49.4061 173.889 49.6366L171.346 53.4889C170.895 54.2029 170.901 55.1223 171.36 55.8306L174.277 59.5753C174.423 59.8009 174.67 59.9366 174.935 59.9366H178.009C178.188 59.9366 178.369 59.6472 178.273 59.492L174.935 55.0464C174.772 54.7829 174.734 54.5974 174.896 54.3332L177.793 49.6241C177.888 49.4689 177.78 49.2671 177.6 49.2671Z" fill="white"/>
<path d="M217.548 302.423C218.996 302.423 220.353 302.634 221.62 303.057C222.887 303.479 223.972 304.127 224.877 305.002C225.812 305.846 226.536 306.917 227.049 308.214C227.592 309.481 227.863 310.959 227.863 312.648C227.863 314.487 227.577 316.056 227.003 317.353C226.461 318.649 225.722 319.705 224.787 320.519C223.852 321.334 222.766 321.937 221.529 322.329C220.323 322.691 219.056 322.872 217.729 322.872C216.282 322.872 214.924 322.661 213.658 322.238C212.391 321.816 211.29 321.183 210.355 320.338C209.45 319.494 208.727 318.438 208.184 317.172C207.671 315.875 207.415 314.367 207.415 312.648C207.415 310.838 207.686 309.285 208.229 307.988C208.802 306.691 209.556 305.635 210.491 304.821C211.426 304.007 212.497 303.404 213.703 303.011C214.939 302.619 216.221 302.423 217.548 302.423ZM213.16 312.648C213.16 314.517 213.537 315.965 214.291 316.991C215.045 318.016 216.131 318.529 217.548 318.529C218.966 318.529 220.082 318.016 220.896 316.991C221.71 315.965 222.118 314.517 222.118 312.648C222.118 310.778 221.741 309.33 220.987 308.305C220.233 307.279 219.147 306.766 217.729 306.766C216.312 306.766 215.196 307.279 214.382 308.305C213.567 309.33 213.16 310.778 213.16 312.648Z" fill="white"/>
<path d="M191.171 317.444C191.171 318.741 191.608 319.781 192.483 320.565C193.358 321.349 194.624 321.742 196.283 321.742C197.55 321.742 198.741 321.561 199.857 321.199C200.973 320.837 202.119 320.294 203.295 319.57L205.15 323.823C203.763 324.637 202.376 325.24 200.988 325.632C199.601 325.994 198.108 326.175 196.509 326.175C194.7 326.175 193.086 325.964 191.669 325.542C190.281 325.089 189.12 324.471 188.185 323.687C187.25 322.903 186.542 321.968 186.059 320.882C185.576 319.796 185.335 318.605 185.335 317.308C185.335 315.921 185.592 314.533 186.104 313.146C186.647 311.759 187.461 310.266 188.547 308.667C189.663 307.039 191.066 305.244 192.755 303.284C194.474 301.323 196.509 299.091 198.862 296.588L203.024 300.569C200.973 302.801 199.194 304.746 197.686 306.405C196.208 308.064 194.986 309.557 194.021 310.884C193.056 312.181 192.332 313.357 191.85 314.413C191.397 315.438 191.171 316.448 191.171 317.444Z" fill="white"/>
<path d="M170.055 302.423C171.503 302.423 172.86 302.634 174.127 303.057C175.393 303.479 176.479 304.127 177.384 305.002C178.319 305.846 179.043 306.917 179.556 308.214C180.098 309.481 180.37 310.959 180.37 312.648C180.37 314.487 180.083 316.056 179.51 317.353C178.967 318.649 178.229 319.705 177.294 320.519C176.359 321.334 175.273 321.937 174.036 322.329C172.83 322.691 171.563 322.872 170.236 322.872C168.788 322.872 167.431 322.661 166.165 322.238C164.898 321.816 163.797 321.183 162.862 320.338C161.957 319.494 161.233 318.438 160.69 317.172C160.178 315.875 159.921 314.367 159.921 312.648C159.921 310.838 160.193 309.285 160.736 307.988C161.309 306.691 162.063 305.635 162.998 304.821C163.933 304.007 165.003 303.404 166.21 303.011C167.446 302.619 168.728 302.423 170.055 302.423ZM165.667 312.648C165.667 314.517 166.044 315.965 166.798 316.991C167.552 318.016 168.638 318.529 170.055 318.529C171.473 318.529 172.589 318.016 173.403 316.991C174.217 315.965 174.624 314.517 174.624 312.648C174.624 310.778 174.247 309.33 173.493 308.305C172.739 307.279 171.654 306.766 170.236 306.766C168.819 306.766 167.703 307.279 166.888 308.305C166.074 309.33 165.667 310.778 165.667 312.648Z" fill="white"/>
<path d="M142.824 313.462C143.759 313.221 144.634 312.904 145.448 312.512C146.293 312.12 147.017 311.638 147.62 311.065C148.253 310.492 148.736 309.828 149.067 309.074C149.429 308.32 149.61 307.461 149.61 306.495C149.61 305.591 149.444 304.822 149.113 304.188C148.781 303.555 148.344 303.042 147.801 302.65C147.258 302.258 146.655 301.971 145.991 301.79C145.358 301.61 144.724 301.519 144.091 301.519C143.126 301.519 142.191 301.625 141.286 301.836C140.381 302.047 139.431 302.409 138.436 302.921L136.626 298.759C137.682 298.156 138.858 297.704 140.155 297.402C141.482 297.07 142.87 296.905 144.317 296.905C145.946 296.905 147.439 297.146 148.796 297.628C150.183 298.111 151.36 298.79 152.325 299.664C153.29 300.539 154.044 301.579 154.587 302.786C155.13 303.962 155.401 305.244 155.401 306.631C155.401 308.049 155.175 309.346 154.722 310.522C154.3 311.668 153.682 312.708 152.868 313.643C152.083 314.578 151.133 315.393 150.018 316.086C148.932 316.78 147.74 317.368 146.444 317.851L153.953 325.994L149.656 329.115L141.286 318.394C139.477 318.213 138.089 317.715 137.124 316.901C136.189 316.056 135.722 315.106 135.722 314.05C135.722 312.995 136.114 312.181 136.898 311.608C137.712 311.034 138.768 310.748 140.065 310.748L142.824 313.462Z" fill="white"/>
</svg>
