<svg width="466" height="51" viewBox="0 0 466 51" fill="none" xmlns="http://www.w3.org/2000/svg">
<path d="M122.9 49.1408V13.9597H133.581V17.4979C135.517 15.2281 138.788 13.2254 143.261 13.2254C150.471 13.2254 155.01 18.2322 155.01 25.9093V49.1408H144.329V28.9801C144.329 25.442 142.86 22.8384 139.389 22.8384C136.452 22.8384 133.581 24.9079 133.581 29.0469V49.1408H122.9Z" fill="#0463C4"/>
<path d="M169.831 1.20908V49.1408H159.15V1.20908H169.831Z" fill="#0463C4"/>
<path d="M189.143 49.1408V13.9597H199.825V17.4979C201.761 15.2281 205.032 13.2254 209.504 13.2254C216.714 13.2254 221.254 18.2322 221.254 25.9093V49.1408H210.573V28.9801C210.573 25.442 209.104 22.8384 205.633 22.8384C202.695 22.8384 199.825 24.9079 199.825 29.0469V49.1408H189.143Z" fill="#0463C4"/>
<path d="M241.281 49.8751C230.667 49.8751 223.457 42.4651 223.457 31.5169C223.457 21.1027 230.934 13.2254 241.081 13.2254C251.762 13.2254 257.57 21.1027 257.57 31.0496V33.8534H233.738C234.472 38.6599 237.343 41.397 241.415 41.397C244.753 41.397 247.356 39.7948 248.358 36.7239L257.303 39.5945C254.7 46.337 248.291 49.8751 241.281 49.8751ZM240.948 21.5033C237.677 21.5033 235.14 23.4393 234.072 27.3112H247.023C246.956 24.1736 244.886 21.5033 240.948 21.5033Z" fill="#0463C4"/>
<path fill-rule="evenodd" clip-rule="evenodd" d="M184.828 49.1408V13.9597H174.147V49.1408H184.828Z" fill="#0463C4"/>
<path d="M272.982 1.85437V27.2221L262.301 37.169L272.337 27.823L269.244 25.1527L272.982 27.2221V34.2317V39.5722V49.7861H262.301V1.85437H272.982Z" fill="#EC3534"/>
<path d="M300.159 49.7861V1.85437H310.841V18.1431C312.776 15.8734 316.048 13.8707 320.52 13.8707C327.73 13.8707 332.27 18.8775 332.27 26.5546V49.7861H321.588V29.6254C321.588 26.0873 320.12 23.4837 316.648 23.4837C313.711 23.4837 310.841 25.5532 310.841 29.6922V49.7861H300.159Z" fill="#EC3534"/>
<path d="M346.356 50.4537C339.28 50.4537 334.206 46.1812 334.206 39.9728C334.206 32.6962 340.348 29.7589 347.758 28.6908L355.635 27.3557V26.7548C355.635 24.1513 354.233 22.4824 350.762 22.4824C347.691 22.4824 346.089 23.8175 345.421 26.6881L335.207 25.1527C336.743 18.9442 342.284 13.8707 351.229 13.8707C360.442 13.8707 366.116 18.0764 366.116 26.2875V39.8393C366.116 41.6417 366.784 42.1758 368.853 41.9087V49.7861C362.711 50.7875 358.572 49.6526 356.77 46.6485C354.434 49.0518 350.962 50.4537 346.356 50.4537ZM355.635 37.169V34.2317L349.493 35.3665C346.69 35.8338 344.62 36.7684 344.62 39.2384C344.62 41.4414 346.289 42.6431 348.826 42.6431C352.364 42.6431 355.635 40.7739 355.635 37.169Z" fill="#EC3534"/>
<path d="M391.126 50.5204C386.92 50.5204 383.582 48.7847 381.58 46.3147V49.7861H370.899V1.85437H381.58V18.1431C383.582 15.6064 386.92 13.8707 391.126 13.8707C400.806 13.8707 406.28 22.1486 406.28 32.2289C406.28 42.2425 400.806 50.5204 391.126 50.5204ZM381.513 31.2943V33.1635C381.513 38.4374 384.384 41.4414 388.389 41.4414C393.062 41.4414 395.532 37.6363 395.532 32.2289C395.532 26.8216 393.062 23.0164 388.389 23.0164C384.384 23.0164 381.513 25.9538 381.513 31.2943Z" fill="#EC3534"/>
<path d="M418.66 50.4537C411.583 50.4537 406.51 46.1812 406.51 39.9728C406.51 32.6962 412.652 29.7589 420.062 28.6908L427.939 27.3557V26.7548C427.939 24.1513 426.537 22.4824 423.066 22.4824C419.995 22.4824 418.393 23.8175 417.725 26.6881L407.511 25.1527C409.047 18.9442 414.588 13.8707 423.533 13.8707C432.746 13.8707 438.42 18.0764 438.42 26.2875V39.8393C438.42 41.6417 439.088 42.1758 441.157 41.9087V49.7861C435.015 50.7875 430.876 49.6526 429.074 46.6485C426.737 49.0518 423.266 50.4537 418.66 50.4537ZM427.939 37.169V34.2317L421.797 35.3665C418.994 35.8338 416.924 36.7684 416.924 39.2384C416.924 41.4414 418.593 42.6431 421.13 42.6431C424.668 42.6431 427.939 40.7739 427.939 37.169Z" fill="#EC3534"/>
<path d="M465.299 14.5383V24.8189C464.164 24.6186 463.363 24.5518 462.162 24.5518C457.555 24.5518 453.884 27.4224 453.884 32.496V49.7861H443.202V14.605H453.884V19.2113C455.486 16.4075 458.89 14.4047 462.963 14.4047C463.964 14.4047 464.632 14.4715 465.299 14.5383Z" fill="#EC3534"/>
<circle cx="179.266" cy="5.56311" r="5.56311" fill="#0056AE"/>
<path fill-rule="evenodd" clip-rule="evenodd" d="M84.3009 32C84.3009 22.0587 92.3596 14 102.301 14C112.242 14 120.301 22.0587 120.301 32C120.301 41.9413 112.242 50 102.301 50C92.3596 50 84.3009 41.9413 84.3009 32ZM102.301 40C106.719 40 110.301 36.4183 110.301 32C110.301 27.5817 106.719 24 102.301 24C97.8826 24 94.3009 27.5817 94.3009 32C94.3009 36.4183 97.8826 40 102.301 40Z" fill="#0463C3"/>
<path d="M294.531 14H284.246C283.342 14 282.5 14.4691 282.009 15.2468L273.429 28.245C271.908 30.654 271.926 33.756 273.475 36.1461L283.317 48.781C283.811 49.542 284.643 50 285.537 50H295.911C296.516 50 297.124 49.0237 296.801 48.5L285.537 33.5C284.987 32.6108 284.859 31.985 285.408 31.0936L295.182 15.2045C295.503 14.6808 295.136 14 294.531 14Z" fill="#EC3534"/>
<path d="M25.0305 0C11.2062 0 0 11.2205 0 25.0623C0 38.9041 11.2062 50.1246 25.0305 50.1246C38.8547 50.1246 50.0609 38.9041 50.0609 25.0623C50.0609 11.2205 38.8547 0 25.0305 0ZM25.0305 34.44C19.8578 34.44 15.6647 30.2416 15.6647 25.0623C15.6647 19.883 19.8578 15.6846 25.0305 15.6846C30.2032 15.6846 34.3962 19.883 34.3962 25.0623C34.3962 30.2416 30.2032 34.44 25.0305 34.44Z" fill="#0E5DAE"/>
<path d="M74.0163 0.10968H49.515C48.233 0.10968 47.0405 0.759986 46.3432 1.83817L35.5998 18.4712C33.4431 21.8108 33.4693 26.1111 35.6646 29.4244L48.1975 48.3266C48.8979 49.3816 50.0781 50.0164 51.3447 50.0164H73.137C73.9947 50.0164 74.5146 49.0696 74.0564 48.3436L61.0884 27.8458C60.3094 26.6131 60.3063 25.0422 61.0838 23.8065L74.9389 1.77947C75.394 1.05347 74.8741 0.10968 74.0163 0.10968Z" fill="#EC3534"/>
</svg>
