<svg width="155" height="32" viewBox="0 0 155 32" fill="none" xmlns="http://www.w3.org/2000/svg">
<path d="M103.602 6.336C105.906 6.336 107.73 7.104 109.074 8.64C110.442 10.176 111.126 12.288 111.126 14.976V23.14H104.97V15.696C104.97 14.352 104.61 13.308 103.89 12.564C103.194 11.796 102.258 11.412 101.082 11.412C99.8339 11.412 98.8379 11.808 98.0939 12.6C97.3739 13.392 97.0139 14.52 97.0139 15.984V23.14H90.8579V0H97.0139V10.224C97.5899 9.024 98.4419 8.076 99.5699 7.38C100.722 6.684 102.066 6.336 103.602 6.336Z" fill="#106ECE"/>
<path d="M88.4777 21.348V26.64H85.7057C83.3537 26.64 81.5177 26.064 80.1977 24.912C78.9017 23.736 78.2537 21.804 78.2537 19.116V11.736H75.5537V6.552H78.2537V1.62H84.4097V6.552H88.4417V11.736H84.4097V19.224C84.4097 20.016 84.5657 20.568 84.8777 20.88C85.2137 21.192 85.7657 21.348 86.5337 21.348H88.4777Z" fill="#106ECE"/>
<path d="M73.9314 0V26.64H67.7754V0H73.9314Z" fill="#106ECE"/>
<path d="M52.0891 6.30005C53.6251 6.30005 54.9451 6.64805 56.0491 7.34405C57.1531 8.04005 57.9691 8.98805 58.4971 10.188V6.55205H64.6171V26.64H58.4971V23.004C57.9691 24.204 57.1531 25.152 56.0491 25.848C54.9451 26.544 53.6251 26.892 52.0891 26.892C50.4331 26.892 48.9451 26.484 47.6251 25.668C46.3291 24.828 45.2971 23.6281 44.5291 22.0681C43.7851 20.5081 43.4131 18.684 43.4131 16.596C43.4131 14.484 43.7851 12.66 44.5291 11.124C45.2971 9.56405 46.3291 8.37605 47.6251 7.56005C48.9451 6.72005 50.4331 6.30005 52.0891 6.30005ZM54.0691 11.7C52.7491 11.7 51.6811 12.132 50.8651 12.996C50.0731 13.86 49.6771 15.06 49.6771 16.596C49.6771 18.132 50.0731 19.332 50.8651 20.196C51.6811 21.06 52.7491 21.4921 54.0691 21.4921C55.3651 21.4921 56.4211 21.048 57.2371 20.16C58.0771 19.272 58.4971 18.084 58.4971 16.596C58.4971 15.084 58.0771 13.896 57.2371 13.032C56.4211 12.144 55.3651 11.7 54.0691 11.7Z" fill="#106ECE"/>
<path d="M42.3281 16.056C42.3281 16.56 42.2681 17.112 42.1481 17.712H28.2161C28.2881 19.224 28.6721 20.316 29.3681 20.988C30.0641 21.636 30.9521 21.96 32.0321 21.96C32.9441 21.96 33.7001 21.7321 34.3001 21.2761C34.9001 20.8201 35.2961 20.232 35.4881 19.512H42.0041C41.7401 20.928 41.1641 22.2 40.2761 23.328C39.3881 24.432 38.2601 25.308 36.8921 25.956C35.5241 26.58 34.0001 26.892 32.3201 26.892C30.3521 26.892 28.6001 26.484 27.0641 25.668C25.5521 24.828 24.3641 23.6281 23.5001 22.0681C22.6361 20.5081 22.2041 18.684 22.2041 16.596C22.2041 14.484 22.6241 12.66 23.4641 11.124C24.3281 9.56405 25.5281 8.37605 27.0641 7.56005C28.6001 6.72005 30.3521 6.30005 32.3201 6.30005C34.3121 6.30005 36.0641 6.70805 37.5761 7.52405C39.0881 8.34005 40.2521 9.49205 41.0681 10.98C41.9081 12.444 42.3281 14.136 42.3281 16.056ZM36.1001 15.12C36.1241 13.8 35.7641 12.816 35.0201 12.168C34.3001 11.496 33.4001 11.16 32.3201 11.16C31.1921 11.16 30.2561 11.496 29.5121 12.168C28.7681 12.84 28.3481 13.824 28.2521 15.12H36.1001Z" fill="#106ECE"/>
<path d="M12.744 6.336C15.048 6.336 16.872 7.104 18.216 8.64C19.584 10.176 20.268 12.288 20.268 14.976V26.64H14.112V15.696C14.112 14.352 13.752 13.308 13.032 12.564C12.336 11.796 11.4 11.412 10.224 11.412C8.976 11.412 7.98 11.808 7.236 12.6C6.516 13.392 6.156 14.52 6.156 15.984V26.64H0V0H6.156V10.224C6.732 9.024 7.584 8.076 8.712 7.38C9.864 6.684 11.208 6.336 12.744 6.336Z" fill="#106ECE"/>
<path fill-rule="evenodd" clip-rule="evenodd" d="M125.034 11.5438L123.192 21.5041C122.994 22.5741 121.529 22.7378 121.1 21.7379L119.432 17.8519L118.21 25.9388C118.136 26.4279 117.716 26.7895 117.221 26.7895H91.876C91.3237 26.7895 90.876 26.3418 90.876 25.7895C90.876 25.2372 91.3237 24.7895 91.876 24.7895H115.501C115.995 24.7895 116.416 24.4279 116.49 23.9388L117.926 14.4311C118.091 13.3365 119.588 13.1442 120.024 14.1615L121.766 18.2191L124.186 5.13222C124.421 3.86279 126.229 3.97705 126.362 5.21536C127.113 12.2187 127.859 19.0599 128.471 23.8545C128.535 24.3577 128.597 24.8373 128.658 25.2911C129.346 21.2997 130.239 16.0432 130.776 12.7948C130.868 12.2395 131.324 11.9143 131.766 11.8742C132.224 11.8325 132.77 12.0968 132.925 12.6888C133.241 13.9033 134.148 17.348 135.023 20.3641C135.254 21.1616 135.482 21.9233 135.694 22.6028C135.761 22.2576 135.829 21.8962 135.899 21.5254C135.936 21.3283 135.973 21.1283 136.011 20.9267C136.325 19.2507 136.661 17.4612 136.959 16.2488C137.086 15.7347 137.545 15.4139 138.027 15.4139H153.876C154.428 15.4139 154.876 15.8616 154.876 16.4139C154.876 16.9662 154.428 17.4139 153.876 17.4139H139.545C139.076 17.4139 138.669 17.7398 138.575 18.1992C138.38 19.1441 138.177 20.2295 137.976 21.3006C137.939 21.4995 137.902 21.698 137.865 21.895C137.69 22.8212 137.52 23.7115 137.365 24.4423C137.217 25.1416 137.064 25.7859 136.913 26.1611C136.869 26.2728 136.717 26.6098 136.317 26.772C135.852 26.9602 135.466 26.7614 135.309 26.6517C135.153 26.5423 135.051 26.4117 135 26.341C134.94 26.2577 134.889 26.171 134.847 26.093C134.686 25.7965 134.513 25.3581 134.339 24.8716C133.981 23.8722 133.542 22.4389 133.102 20.9213C132.747 19.6979 132.388 18.4061 132.064 17.2195C131.203 22.3184 130.119 28.6204 129.769 30.5472C129.751 30.6466 129.725 30.7638 129.684 30.879C129.658 30.9513 129.566 31.2101 129.32 31.4086C129.168 31.5309 128.937 31.645 128.648 31.6398C128.37 31.6349 128.162 31.5223 128.038 31.4297C127.824 31.2697 127.719 31.0641 127.684 30.9939C127.59 30.8093 127.523 30.5836 127.471 30.386C127.415 30.1693 127.358 29.9076 127.3 29.611C127.07 28.4314 126.793 26.5098 126.487 24.1075C126.054 20.7122 125.554 16.3018 125.034 11.5438Z" fill="#FF6B6B"/>
</svg>
