<svg width="45" height="45" viewBox="0 0 45 45" fill="none" xmlns="http://www.w3.org/2000/svg">
<circle cx="22.5" cy="22.5" r="22" transform="rotate(90 22.5 22.5)" stroke="black"/>
<path fill-rule="evenodd" clip-rule="evenodd" d="M27.5278 23.4666L27.0556 22.9544L25.1268 25.0488L23.1981 27.1433L23.1981 21.0716L23.1981 15L22.4967 15L21.7953 15L21.7953 21.0716L21.7953 27.1433L19.8665 25.0488L17.9377 22.9544L17.4655 23.4667C17.2057 23.7484 16.9963 23.989 17 24.0012C17.0038 24.0135 18.2451 25.3682 19.7584 27.0118L22.5099 30L25.2549 27.019C26.7647 25.3795 28 24.0247 28 24.0084C28 23.9921 27.7875 23.7483 27.5278 23.4666Z" fill="#666666"/>
</svg>
